<?xml version="1.0" encoding="UTF-8" standalone="no"?>
<!-- Created with Inkscape (http://www.inkscape.org/) -->

<svg
   version="1.1"
   id="svg1"
   width="349"
   height="421"
   viewBox="0 0 349 421"
   xmlns="http://www.w3.org/2000/svg"
   xmlns:svg="http://www.w3.org/2000/svg">
  <defs
     id="defs1" />
  <g
     id="g1">
    <path
       style="fill:#000000"
       d="m 28.475345,415.23278 c -0.63668,-0.40513 -3.006,-4.16342 -5.26516,-8.35177 l -4.10757,-7.61516 0.0769,-13.38293 c 0.0509,-8.85895 -0.44601,-15.58018 -1.47005,-19.88292 -0.85084,-3.575 -1.55364,-8.12681 -1.56177,-10.11514 -0.0156,-3.80644 3.10283,-8.88486 5.45573,-8.88486 0.72894,0 3.17544,-1.05087 5.43666,-2.33527 l 4.11132,-2.33527 -2.50924,-1.14329 c -2.87892,-1.31173 -3.27476,-3.65839 -0.84635,-5.01739 1.46746,-0.82123 1.40295,-1.0131 -0.54882,-1.63257 -1.45827,-0.46284 -2.10992,-1.36421 -1.91289,-2.64596 0.19067,-1.24045 -0.57737,-2.38665 -2.12222,-3.16712 -3.57351,-1.80537 -3.62574,-3.50416 -0.16826,-5.47202 1.69216,-0.96311 3.07665,-1.97611 3.07665,-2.25111 0,-0.275 -1.39625,-1.29474 -3.10277,-2.2661 -2.57439,-1.46535 -2.89304,-2.01878 -1.87123,-3.25 0.67734,-0.81614 2.18893,-1.49424 3.35909,-1.50687 1.68787,-0.0182 1.35383,-0.47145 -1.61634,-2.19306 -3.62667,-2.10215 -5.44313,-4.86332 -4.35628,-6.62189 0.29091,-0.4707 2.68246,-0.52332 5.31455,-0.11694 2.63209,0.40639 4.95357,0.58203 5.15885,0.39032 0.20527,-0.19172 -1.48223,-2.45648 -3.75,-5.03281 -2.26778,-2.57633 -4.12323,-5.31 -4.12323,-6.07482 0,-2.21129 2.79733,-2.69064 5.47254,-0.93778 1.3514,0.88547 2.62878,1.60995 2.83861,1.60995 0.20984,0 -0.43464,-2.3625 -1.43217,-5.25 -2.13701,-6.18591 -2.46086,-12.75031 -0.62898,-12.74934 1.727,9.1e-4 11.60727,16.92223 14.44399,24.73733 2.3108,6.36618 5.11523,11.17022 6.55601,11.23059 0.4125,0.0173 0.64269,-0.30608 0.51153,-0.71858 -0.13116,-0.4125 1.44384,-3.50886 3.5,-6.88081 2.05616,-3.37195 3.7404,-6.74695 3.74276,-7.5 0.008,-2.45694 5.649828,-9.94963 9.422938,-12.51353 5.19333,-3.52896 9.36352,-5.11724 16.41927,-6.25354 7.18427,-1.15699 13.71283,-5.57896 18.571877,-12.57924 1.69489,-2.44177 4.55998,-6.47496 6.36686,-8.96263 3.14735,-4.3332 3.21757,-4.62633 1.67287,-6.98383 -2.74586,-4.19072 -1.57579,-6.78921 4.28402,-9.51395 2.88317,-1.34064 5.48067,-3.18909 5.77222,-4.10767 0.29154,-0.91858 2.26339,-3.54766 4.38188,-5.84239 4.46703,-4.83867 5.95453,-10.4045 3.45001,-12.90903 -1.12141,-1.12141 -1.42743,-2.79073 -1.07872,-5.88445 0.26774,-2.37541 0.0855,-4.31893 -0.40506,-4.31893 -1.59338,0 -4.85488,-6.41827 -4.85872,-9.56144 -0.006,-5.18113 3.38545,-7.66933 14.29455,-10.48644 3.6161,-0.9338 6.32623,-2.70853 11,-7.20338 3.41094,-3.28036 8.25318,-7.3783 10.76053,-9.10652 5.61348,-3.86916 11.94118,-10.79988 11.94118,-13.07916 0,-0.932 0.47918,-2.58991 1.06485,-3.68424 2.96442,-5.53906 -0.89964,-3.41878 -26.06485,14.30224 -9.1926,6.47332 -17.29079,10.31173 -28.11754,13.32726 -9.10877,2.53703 -19.882457,7.90111 -19.882457,9.89922 0,2.00601 5.461717,8.77987 8.235817,10.21441 3.79162,1.96072 4.8844,5.03221 3.22645,9.06858 -1.10406,2.68789 -1.08616,3.37672 0.11361,4.37244 1.99477,1.65551 1.7725,4.31178 -0.53559,6.40056 -2.65176,2.39982 -6.801127,1.33754 -7.626887,-1.95255 -0.45655,-1.81903 -1.50805,-2.62571 -4.04232,-3.10114 -4.301,-0.80688 -5.25992,-2.59701 -5.09791,-9.51685 C 89.543273,202.03482 87.666643,196 85.707793,196 c -1.33517,0 -6.4306,-5.34735 -8.32485,-8.73643 -0.6875,-1.23004 -1.25,-3.14254 -1.25,-4.25 0,-1.10746 -0.45,-2.01357 -1,-2.01357 -1.5309,0 -1.18849,-3.66865 0.5,-5.35714 0.825,-0.825 1.5,-2.26225 1.5,-3.19388 0,-1.34417 0.29108,-1.4523 1.40991,-0.52375 1.11573,0.92597 1.72255,0.72375 2.90835,-0.96921 l 1.49844,-2.13933 2.13807,2.34166 c 1.17594,1.28791 2.90372,3.16029 3.8395,4.16085 0.93579,1.00056 2.6024,1.64692 3.70359,1.43636 1.85232,-0.35419 1.99425,0.12702 1.89665,6.4308 -0.058,3.7475 0.0975,6.81364 0.34563,6.81364 0.24812,0 1.64559,-0.83953 3.10549,-1.86561 4.658167,-3.27398 8.710597,-5.00562 16.766417,-7.16442 11.9053,-3.19038 19.22365,-7.01422 36.63333,-19.14089 16.64171,-11.59174 20.84042,-15.01057 22.51022,-18.32908 1.33404,-2.65124 -0.75532,-10.6656 -5.19554,-19.92909 -1.8641,-3.889 -3.69959,-8.5841 -4.07886,-10.43355 l -0.68959,-3.36264 -2.28699,3.86264 c -1.25784,2.12445 -3.0733,6.686 -4.03435,10.13678 -1.59997,5.74491 -2.28265,6.70009 -8.09317,11.32365 -3.49019,2.77723 -7.24383,6.31067 -8.34142,7.8521 -1.34805,1.89317 -3.5254,3.1878 -6.70996,3.98968 -9.25085,2.32939 -17.52944,7.13394 -24.62755,14.29281 -3.74101,3.77303 -8.24101,7.73758 -9.999997,8.8101 -3.79254,2.31246 -8.96414,2.5469 -10.6762,0.48398 -0.67261,-0.81044 -2.72154,-1.75468 -4.55318,-2.09829 -1.83164,-0.34362 -3.56122,-1.22668 -3.84353,-1.96235 -0.41624,-1.08471 0.27026,-1.06115 3.63109,0.12462 2.2794,0.80422 4.92398,2.16776 5.87685,3.0301 3.02155,2.73446 7.67855,0.77851 14.962867,-6.28445 3.62784,-3.5176 8.12784,-7.55984 10,-8.98276 4.30689,-3.27343 14.41991,-7.9843 18.97445,-8.83874 2.44947,-0.45952 4.19584,-1.68946 5.87185,-4.13544 1.31202,-1.91477 5.01416,-5.3253 8.22698,-7.57896 5.02298,-3.52342 6.04958,-4.79833 7.32667,-9.09873 1.26304,-4.25314 4.74719,-12.76231 8.75758,-21.38823 1.41915,-3.05243 15.04282,-13.022145 19.70263,-14.418265 2.89589,-0.867626 4.67195,-0.871632 7.12621,-0.0161 2.83952,0.98986 3.54998,0.87561 5.40773,-0.869656 2.59439,-2.437308 7.19338,-2.605593 9.68109,-0.354248 1.70466,1.542694 1.96444,1.532174 3.82874,-0.154988 2.3581,-2.134048 2.6279,-3.678177 0.5,-2.861626 -0.825,0.316582 -1.5,0.05707 -1.5,-0.576698 0,-0.749573 -1.13587,-0.954308 -3.25,-0.585796 -1.7875,0.311579 -3.88223,0.149817 -4.65495,-0.359471 -1.1749,-0.77435 -1.06239,-1.506583 0.68707,-4.471703 1.6992,-2.879932 2.05802,-5.010262 1.91091,-11.345216 -0.1538,-6.62335 0.22827,-8.675151 2.53365,-13.606372 l 2.71476,-5.806881 -4.47072,0.670425 c -2.4589,0.368731 -4.47072,0.387984 -4.47072,0.04278 0,-0.345202 1.4625,-1.971247 3.25,-3.613434 l 3.25,-2.985794 -4.58503,1.973712 c -5.4403,2.341876 -11.03009,2.996945 -11.61127,1.360727 -0.22766,-0.640939 1.16191,-1.735175 3.08795,-2.431637 4.7181,-1.706087 3.67047,-2.908655 -1.3634,-1.565039 -3.01868,0.805732 -4.31756,0.772712 -5.22305,-0.132779 -0.94027,-0.940271 -0.77654,-1.208031 0.7448,-1.21807 1.0725,-0.0071 4.17643,-1.042769 6.89761,-2.301539 l 4.94762,-2.288672 -10.85384,0.05154 c -7.82687,0.03717 -10.97294,-0.297066 -11.28094,-1.198461 -0.29784,-0.871644 0.88452,-1.255839 3.90622,-1.26929 2.38333,-0.01061 6.58333,-0.645372 9.33333,-1.410583 l 5,-1.391293 -9.12756,-0.08942 c -6.81011,-0.06671 -9.44362,-0.470258 -10.37244,-1.589415 -1.0894,-1.312648 -0.13671,-1.51747 7.62756,-1.63987 l 8.87244,-0.139871 -7.6257,-0.73017 c -7.49122,-0.717292 -13.28845,-3.021018 -14.31155,-5.687171 -0.31526,-0.821555 0.31969,-1.32301 1.71863,-1.357302 1.4809,-0.0363 0.7223,-0.626311 -2.28138,-1.774389 -3.34717,-1.279367 -4.58687,-2.328368 -4.83909,-4.094714 -0.36863,-2.58157 -0.9382,-2.558196 13.83909,-0.56793 2.93007,0.394634 3.0834,0.332615 0.9416,-0.380869 -6.14635,-2.047495 -13.9416,-8.0995144 -13.9416,-10.8238807 0,-2.383808 5.20612,-1.36079897 10.39649,2.0429223 6.51221,4.270549 10.6523,5.653245 16.92705,5.653245 h 5.02509 l -2.17432,-2.314451 c -4.92888,-5.2465583 -1.673,-6.85403327 5.09759,-2.516756 5.14342,3.294896 5.32924,3.331207 17.04799,3.331207 11.24368,0 11.94561,0.120394 13.764,2.360784 1.05386,1.2984304 1.91611,3.6942934 1.91611,5.3241384 0,2.891441 0.11527,2.959399 4.75,2.800355 9.74447,-0.334388 11.11312,-0.04435 14.7152,3.118314 3.59144,3.15332 4.69981,7.186069 2.2848,8.313075 -0.86512,0.403722 -0.90975,0.748068 -0.14494,1.118352 0.60778,0.294261 3.85094,2.319261 7.20703,4.5 3.71578,2.414465 7.29193,3.964981 9.14494,3.964981 3.49266,0 7.04297,3.035361 7.04297,6.02144 0,2.686962 -4.75056,9.764614 -7.04227,10.491975 -1.0003,0.317484 -2.12046,1.951022 -2.48925,3.630084 -0.55978,2.548654 -0.15837,3.581238 2.4305,6.252278 1.70556,1.759691 3.10102,3.479759 3.10102,3.822375 0,0.342616 -1.35,0.919447 -3,1.281848 -2.7235,0.598181 -4.38168,3.5 -2,3.5 0.55,0 1,0.675 1,1.5 0,0.825 -0.3375,1.503511 -0.75,1.507802 -1.31539,0.01368 -3.08216,4.918022 -2.53098,7.025714 1.05974,4.052484 -2.27503,5.966479 -10.39545,5.966479 -6.94631,0 -7.43343,0.14702 -8.54091,2.577664 -1.87873,4.12338 -0.0171,5.99323 5.56774,5.59245 3.89104,-0.27922 4.9642,0.0663 6.98798,2.249993 1.31503,1.41894 2.9271,2.57989 3.58238,2.57989 0.65528,0 3.75368,1.30645 6.88533,2.90322 3.13165,1.59677 9.007,4.59116 13.05632,6.65419 l 7.36242,3.75098 -0.4689,4.8799 c -0.42676,4.44134 -0.22077,5.05659 2.29196,6.84581 1.51847,1.08124 3.36638,1.97994 4.10648,1.99711 0.7401,0.0172 3.1152,1.11835 5.27801,2.44708 l 3.93238,2.41586 2.31762,-3.14135 c 1.27469,-1.72775 2.31762,-3.95688 2.31762,-4.95364 0,-1.93208 -11.05477,-9.59195 -18.80926,-13.03296 -2.96595,-1.31613 -4.21017,-2.43499 -3.99138,-3.58921 0.44784,-2.36248 7.75406,-2.76956 11.83468,-0.65939 4.05835,2.09866 5.96596,1.30734 5.96596,-2.47478 0,-4.3803 -2.5832,-6.97231 -6.39786,-6.4197 -3.44908,0.49965 -6.21717,-0.818953 -5.19412,-2.474273 0.79522,-1.2867 7.06735,-3.13546 10.66384,-3.14326 1.41452,-0.003 4.33952,1.33191 6.5,2.9666 2.16048,1.6347 4.85579,2.984693 5.98958,2.999993 1.13379,0.0153 3.02747,0.92782 4.20819,2.02782 1.18071,1.1 2.5829,2 3.11598,2 0.53307,0 1.94093,1.23532 3.12857,2.74515 1.9706,2.50522 2.10115,3.48853 1.4936,11.25 -0.62384,7.96965 -0.50009,8.80015 1.9666,13.19736 1.82176,3.24752 2.80911,6.80091 3.20637,11.53944 0.5341,6.37073 0.35374,7.23724 -2.5933,12.4591 -2.20681,3.91025 -3.96233,5.81172 -5.78891,6.27016 -1.44187,0.36188 -9.05996,0.63165 -16.92907,0.59948 -12.87833,-0.0526 -14.8528,-0.29966 -19.76667,-2.47281 -3.00255,-1.32787 -7.44035,-4.24048 -9.86177,-6.47247 -3.65783,-3.37167 -5.31932,-4.16379 -9.82181,-4.68257 -5.34257,-0.61557 -5.51448,-0.55202 -12.15384,4.49326 -3.70404,2.81471 -8.51783,7.5315 -10.6973,10.48175 -2.17948,2.95025 -5.2239,6.335 -6.76539,7.52167 -1.54148,1.18667 -6.85269,6.12038 -11.80269,10.96381 -4.95,4.84342 -9.9,9.30294 -11,9.91003 -1.98469,1.09536 -1.98363,1.11548 0.13862,2.62891 1.17623,0.83881 3.72981,3.8972 5.6746,6.79642 6.16111,9.18474 22.56729,24.16499 31.32279,28.60041 2.2748,1.15238 5.6498,4.00783 7.5,6.34544 2.92335,3.69347 3.35987,4.98071 3.33252,9.82709 -0.0239,4.23663 -0.69016,6.70083 -2.7723,10.25374 -4.83572,8.25153 -11.46681,11.74463 -22.29532,11.74463 -5.35336,0 -6.97238,0.45335 -10.76853,3.01534 -7.50036,5.06193 -11.99084,6.19755 -27.63238,6.98807 -18.41785,0.93085 -30.75177,4.18728 -35.66727,9.41696 -1.74199,1.85334 -5.34199,4.83445 -8,6.62469 -2.658,1.79024 -5.82233,4.1444 -7.03185,5.23147 -2.85988,2.57036 -5.30088,1.60133 -5.30088,-2.10436 0,-3.19964 -7.08856,-12.17217 -9.61637,-12.17217 -3.16414,0 -2.23462,2.94794 2.55195,8.09345 4.83484,5.1974 6.85529,8.62975 3.4018,5.77899 -1.42604,-1.17715 -1.58822,-1.159 -1.13977,0.12756 0.29579,0.84857 1.48877,1.39006 2.74701,1.24684 2.85624,-0.32511 2.21422,2.1325 -0.66852,2.55903 -2.97368,0.43998 -4.73868,2.84945 -7.30256,9.96906 -1.9932,5.5349 -7.85794,13.22507 -10.0858,13.22507 -1.26436,0 -3.90798,-8.09182 -4.87791,-14.93072 -1.24484,-8.77724 0.29678,-14.27389 6.45688,-23.022 2.49331,-3.54081 4.53329,-7.34555 4.53329,-8.45497 0,-1.67075 -0.81566,-1.23997 -4.75,2.50861 -2.6125,2.48916 -6.55,5.82894 -8.75,7.42172 -2.2,1.59279 -4.45,3.47518 -5,4.18308 -1.16524,1.49978 -11.52292,5.29428 -14.45156,5.29428 -1.180047,0 -5.397107,3.42028 -10.274967,8.3336 -4.55041,4.58347 -11.85262,10.96897 -16.22715,14.18999 -9.65935,7.1123 -16.969198,14.60903 -19.478438,19.97641 -1.0285,2.2 -2.16882,7.28336 -2.53406,11.29636 -0.51111,5.61591 -1.31122,8.2645 -3.474,11.5 -1.54547,2.312 -4.73948,8.25364 -7.09779,13.20364 l -4.28784,9 0.2135,12.65786 c 0.20493,12.14963 0.12224,12.72178 -2.0596,14.25 -2.45104,1.71677 -4.64546,1.99588 -6.48569,0.82492 z m 4.6576,-2.25265 c 0,-0.56093 -1.06183,-2.70192 -2.35961,-4.75775 -6.38176,-10.10935 -6.9788,-12.10755 -7.23738,-24.22238 -0.15424,-7.2261 0.27723,-13.72986 1.16098,-17.5 2.55338,-10.89287 1.20222,-18.17937 -3.21336,-17.32901 -4.45293,0.85756 -5.20247,8.60814 -1.80127,18.62613 1.16944,3.44451 1.49326,7.89402 1.29388,17.77867 l -0.26595,13.18432 3.76598,7.61995 c 3.15771,6.38918 4.16096,7.61994 6.21136,7.61994 1.34495,0 2.44537,-0.45894 2.44537,-1.01987 z m 3,-8.91032 v -7.9302 l -2.96743,0.85105 c -4.60758,1.32144 -5.05513,1.81981 -4.03759,4.49613 1.09706,2.88549 5.8258,10.51321 6.51757,10.51321 0.2681,0 0.48745,-3.56859 0.48745,-7.93019 z m -3.54705,-9.23033 c 2.5215,-1.14886 3.59911,-4.83948 1.41307,-4.83948 -2.97228,0 -8.86602,2.4711 -8.86602,3.7173 0,0.77041 0.45,1.12262 1,0.7827 0.55,-0.33992 1,-0.14148 1,0.44098 0,1.38759 2.27782,1.34519 5.45295,-0.1015 z M 33.160125,389 c 2.32889,0 4.60963,-5.97812 2.7348,-7.16827 -1.49706,-0.95034 -6.94195,-1.08363 -9.18019,-0.22474 -3.12865,1.20057 -1.73432,3.39239 2.16821,3.40832 2.0625,0.008 4.425,0.48291 5.25,1.0544 1.10984,0.76882 0.26449,0.95804 -3.25,0.72749 -2.6125,-0.17139 -4.75,-0.23267 -4.75,-0.13619 0,0.0965 -0.30052,0.95857 -0.66783,1.91577 -0.57853,1.50761 -0.22748,1.65228 2.625,1.08179 C 29.901175,389.29636 32.182675,389 33.160125,389 Z m 0.58983,-8.94854 c 4.90227,1.13729 5.38299,1.1443 5.38299,0.0785 0,-0.84935 -5.74609,-2.60478 -11.25,-3.43687 -2.33399,-0.35285 -2.75,-0.0623 -2.75,1.92083 0,2.04414 0.29625,2.22395 2.36701,1.43664 1.40295,-0.5334 3.9485,-0.53303 6.25,9e-4 z m 6.79954,-3.69459 c 0.34679,-0.90372 0.50744,-1.72445 0.35699,-1.82384 -0.15044,-0.0994 -1.73059,-1.18674 -3.51142,-2.41634 -1.91285,-1.32074 -4.98209,-2.3136 -7.50001,-2.42616 -3.89963,-0.17433 -4.2877,0.0297 -4.56303,2.3988 -0.28329,2.4377 0.0973,2.67913 6.5,4.12297 3.74051,0.84351 7.09028,1.59081 7.44394,1.66068 0.35365,0.0699 0.92674,-0.61239 1.27353,-1.51611 z m -1.5441,-6.01177 c -2.73027,-3.29218 -12.87245,-5.92777 -12.87245,-3.3451 0,0.55 1.2375,1.0118 2.75,1.02622 1.5125,0.0144 4.55,0.878 6.75,1.91906 5.04034,2.38512 5.01656,2.3823 3.37245,0.39982 z m 5.60692,-2.3052 1.53073,-2.96009 -3.75505,-0.97904 c -3.51,-0.91515 -10.84282,-1.49326 -14.25505,-1.12386 -0.825,0.0893 0.525,0.79686 3,1.57233 2.475,0.77546 5.85,2.52794 7.5,3.89438 3.83238,3.17379 4.14012,3.15301 5.97937,-0.40372 z m 2.85777,-6.07985 C 46.539655,361.05509 31.207505,357 28.716335,357 c -0.87493,0 -1.58339,0.82921 -1.58339,1.85326 0,1.57973 1.08372,1.94488 7.3424,2.47393 4.03832,0.34136 8.42582,1.02956 9.75,1.52932 2.59988,0.98123 4.60555,0.4271 3.24474,-0.89646 z m -5.83714,-8.71976 c -8.96413,-8.63155 -11.16218,-9.85599 -13.6505,-7.60408 -1.01723,0.92057 -1.8495,2.18931 -1.8495,2.81941 0,2.45583 2.57986,6.42833 4.49059,6.91465 1.10518,0.2813 4.93441,1.406 8.50941,2.49935 3.575,1.09334 7.175,2.01559 8,2.04943 0.825,0.0338 -1.65,-2.9716 -5.5,-6.67876 z m 8.5,3.56443 c 0,-1.35953 -4.95095,-6.80472 -6.18709,-6.80472 -1.63687,0 -0.74341,2.3 1.93709,4.98657 3.07676,3.08371 4.25,3.58563 4.25,1.81815 z m -0.65164,-5.33929 c -0.94045,-2.45078 5.16302,-13.64795 10.372498,-19.02894 2.62853,-2.71507 9.05414,-8.16992 14.27914,-12.12188 11.17399,-8.45152 18.47968,-15.71571 23.42485,-23.29181 3.563517,-5.45938 3.575147,-5.4667 3.575147,-2.25 0,1.77496 0.47235,3.2272 1.04966,3.2272 3.116,0 22.92243,-13.12462 27.65515,-18.32553 2.50175,-2.74924 3.10612,-4.38389 3.46739,-9.37832 0.45002,-6.22147 2.20807,-9.29615 5.31539,-9.29615 0.97549,0 1.34452,-0.46264 0.91865,-1.1517 -0.39148,-0.63344 0.0452,-1.70522 0.97037,-2.38174 1.47282,-1.07695 1.49183,-1.30307 0.15278,-1.81691 -1.96255,-0.7531 -1.98164,-3.53887 -0.0294,-4.28802 1.70312,-0.65355 1.99961,-2.93482 0.50175,-3.86055 -1.37151,-0.84764 -4.34411,1.39413 -8.04889,6.07004 -1.7121,2.16088 -4.31439,4.56577 -5.78288,5.3442 -3.47108,1.83997 -14.42948,5.15851 -15.03495,4.55305 -0.59078,-0.59079 -0.78921,-0.44405 6.47902,-4.79119 5.61936,-3.36094 12.38596,-9.82835 12.38596,-11.8383 0,-0.46139 -3.375,-0.83888 -7.5,-0.83888 -4.125,0 -7.5,0.39642 -7.5,0.88093 0,1.20679 -15.56033,22.82899 -19.397607,26.95439 -4.0768,4.38289 -6.7584,5.70003 -15.13592,7.43442 -7.11386,1.47277 -16.14147,5.42881 -18.28652,8.01344 -0.65693,0.79156 -3.03231,5.21416 -5.278608,9.82801 -2.2463,4.61384 -5.21811,9.88693 -6.60402,11.71796 l -2.51984,3.32915 2.61126,2.72557 c 1.4362,1.49906 2.61126,3.09139 2.61126,3.5385 0,0.44711 -1.86176,2.67248 -4.13725,4.94528 -6.50453,6.49683 -7.16765,7.87204 -5.93549,12.30933 0.58388,2.10266 1.0641,5.55089 1.06717,7.66273 0.004,2.75458 0.64144,4.37016 2.25557,5.71673 2.76014,2.30259 2.83025,2.31626 2.09836,0.40899 z m 8.65164,-45.3887 c 0,-2.51126 5.769488,-7.16145 13.576228,-10.94238 4.77681,-2.31349 8.89383,-3.99763 9.14892,-3.74253 0.46433,0.46432 -7.14512,5.60818 -8.29633,5.60818 -1.15928,0 -12.42882,8.29191 -12.42882,9.14489 0,0.47031 -0.45,0.85511 -0.999998,0.85511 -0.55,0 -1,-0.41547 -1,-0.92327 z m -15.49378,42.27419 c 1.02397,-1.02397 1.41622,-2.44546 1.03477,-3.75 -0.33787,-1.1555 -0.87888,-4.39674 -1.20225,-7.20274 -0.58049,-5.03703 -0.52289,-5.17366 4.53666,-10.76058 2.81853,-3.11233 5.11981,-5.99151 5.11396,-6.39819 -0.006,-0.40667 -1.5449,-2.22995 -3.4201,-4.05173 -2.1626,-2.10099 -5.10987,-7.22083 -8.05918,-14 -2.55735,-5.87822 -5.74331,-12.36553 -7.07991,-14.41624 -1.33659,-2.05071 -2.43017,-4.11846 -2.43017,-4.59501 0,-0.47655 -0.9,-1.68094 -2,-2.67643 -1.93942,-1.75515 -2,-1.74663 -2,0.28132 0,1.15021 1.34243,5.57753 2.98318,9.83848 1.64074,4.26095 2.77799,7.95237 2.52721,8.20314 -0.25077,0.25078 -2.01318,-0.73179 -3.91645,-2.18349 -7.20378,-5.49459 -7.62964,-2.23393 -0.59394,4.54759 2.75,2.65064 5,5.04292 5,5.31616 0,0.27324 -2.925,0.4968 -6.5,0.4968 -3.575,0 -6.5,0.40543 -6.5,0.90094 0,0.49552 2.02332,1.73302 4.49625,2.75 2.47294,1.01699 4.49794,2.13197 4.5,2.47774 0.002,0.34577 -1.34053,1.1855 -2.98354,1.86606 -3.43447,1.4226 -3.07043,2.65707 1.32906,4.50692 l 3.10168,1.30415 -3.72173,2.19587 c -4.05553,2.39283 -4.57421,3.45721 -2.13993,4.39133 3.02433,1.16054 5.34221,0.59208 7.86259,-1.9283 2.03755,-2.03755 2.2428,-2.64752 1.04545,-3.10699 -2.46842,-0.94722 -1.7703,-4.24922 1.04794,-4.95656 2.44832,-0.61448 2.48089,-0.72374 0.92401,-3.09984 C 33.848705,311.63656 34.256395,309 36.414475,309 c 1.53785,0 5.93221,4.44525 7.59629,7.68426 1.71896,3.34583 1.33793,7.45472 -1.04934,11.31574 -1.35442,2.19055 -2.38333,5.93183 -2.75016,10 l -0.58611,6.5 -3.29819,-4.47194 c -2.35009,-3.18643 -3.21479,-5.34239 -3.00807,-7.5 0.25841,-2.69703 0.0186,-2.99725 -2.19401,-2.74624 -1.36628,0.15499 -3.08725,0.88493 -3.8244,1.62207 -1.12034,1.12034 -0.80131,1.52813 1.94426,2.48524 l 3.28451,1.14498 -2.19815,1.53965 c -2.8609,2.00385 -2.7775,3.06402 0.30184,3.83688 1.61416,0.40513 2.5,1.32939 2.5,2.60841 0,1.08952 0.66463,1.98095 1.47695,1.98095 0.81232,0 2.21408,1.125 3.11501,2.5 1.92508,2.93804 2.69401,3.07118 4.91426,0.85092 z m -3.75269,-11.90535 c 0.13943,-1.95273 1.37693,-5.66074 2.75,-8.24004 1.37306,-2.57929 2.49647,-5.86415 2.49647,-7.29969 0,-3.18526 -3.93315,-9.26929 -6.28516,-9.72224 -2.27872,-0.43884 -2.16806,0.9528 0.28516,3.58603 2.55164,2.73885 2.51405,3.22687 -0.25,3.24568 -2.59892,0.0177 -5.73899,1.92174 -4.25,2.57708 3.70952,1.63265 4.02209,2.33567 1.75,3.93612 -2.58337,1.81973 -2.94023,3.47149 -0.75,3.47149 1.78763,0 1.97242,2.12758 0.32765,3.77236 -0.89648,0.89647 -0.72531,2.00248 0.7274,4.7 1.04487,1.9402 2.13493,3.52674 2.42236,3.52564 0.28743,-10e-4 0.63668,-1.5997 0.77612,-3.55243 z m 87.367245,-19.31798 c -1.95766,-9.12828 1.09741,-19.06119 10.49321,-34.11641 3.17643,-5.0897 3.4059,-6.00705 3.15576,-12.61598 -0.25176,-6.65188 -0.40312,-7.07872 -2.26975,-6.40081 -1.75409,0.63704 -2.06148,1.88465 -2.5,10.14683 -0.49653,9.35506 -0.53221,9.46334 -5.13842,15.59028 -6.95905,9.25659 -8.19746,16.87999 -4.79486,29.51629 1.50643,5.59444 2.34627,3.90514 1.05406,-2.1202 z m 8.87922,-1.54554 c 0,-1.24237 -4.75842,-3.58205 -7.28515,-3.58205 -1.03448,0 -0.27703,8.28136 0.93715,10.24593 0.78853,1.27589 6.348,-4.56022 6.348,-6.66388 z m 2,-5.5247 c 0,-1.00355 -1.91048,-3.55063 -4.24551,-5.66019 l -4.24552,-3.83557 -0.63617,2.96921 c -1.11614,5.20937 -0.94645,6.46771 0.8772,6.50464 0.9625,0.0195 2.86935,0.655 4.23745,1.41226 2.86848,1.58773 4.01255,1.19131 4.01255,-1.39035 z m 0.083,-5.90216 c -1.29291,-2.41583 -6.95368,-6.61789 -7.7894,-5.78218 -0.5975,0.59751 7.92432,8.69568 8.53737,8.11294 0.18206,-0.17306 -0.15452,-1.2219 -0.74797,-2.33076 z m 3.88368,-1.40519 c -0.0457,-1.71524 -2.93561,-5.02828 -6.32121,-7.24661 -2.25848,-1.47981 -2.97758,-1.58415 -3.63103,-0.52683 -0.55946,0.90522 0.64253,2.50562 3.83534,5.10658 5.03475,4.10146 6.16824,4.59564 6.1169,2.66686 z m 6.93474,-10.3032 c -4.71798,-7.83713 -7.74503,-11.00324 -9.16366,-9.58461 -0.82581,0.82581 -0.041,2.04242 2.99275,4.63918 2.44764,2.09508 4.81328,5.3558 5.84436,8.05564 1.15239,3.01748 2.06629,4.20178 2.73014,3.53793 0.66385,-0.66385 -0.14074,-2.88927 -2.40359,-6.64814 z m -10.1348,1.8532 c -2.035,-2.035 -4.04963,-3.35038 -4.47694,-2.92306 -0.80542,0.80541 5.45805,6.54868 7.1936,6.59616 0.54084,0.0148 -0.68166,-1.6381 -2.71666,-3.6731 z m 21.23338,-0.3702 c 0,-0.38488 -1.09863,-1.41963 -2.44141,-2.29945 -1.34277,-0.87982 -3.84576,-3.64083 -5.56219,-6.13559 -1.71644,-2.49475 -3.54854,-4.27155 -4.07133,-3.94845 -0.5228,0.32311 -2.29481,-0.0831 -3.93781,-0.90278 -1.64299,-0.81963 -2.98726,-1.34873 -2.98726,-1.17577 0,0.17296 1.77981,2.46829 3.95514,5.10074 2.17533,2.63244 4.96141,6.68311 6.1913,9.00148 l 2.23617,4.21521 3.30869,-1.57781 c 1.81979,-0.86779 3.3087,-1.8927 3.3087,-2.27758 z m -0.54851,-7.15702 c -2.17332,-2.32333 -4.22834,-4.46016 -4.56671,-4.74851 -0.33837,-0.28835 -0.95789,-1.62089 -1.37672,-2.96121 -0.71941,-2.30224 -0.83531,-2.336 -2.09688,-0.6107 -1.16567,1.59414 -0.92716,2.39566 1.87672,6.30674 4.15153,5.79092 7.71292,8.64008 9.08491,7.26809 0.7069,-0.7069 -0.20984,-2.35577 -2.92132,-5.25441 z m 3.55054,-4.02278 c -2.22557,-3.4375 -4.40209,-6.83076 -4.83672,-7.54058 -0.93407,-1.52548 -4.16531,-0.55771 -4.16531,1.24753 0,1.46761 5.65894,9.50916 7.92467,11.26125 0.86643,0.67 2.37374,1.2325 3.34959,1.25 1.44939,0.026 1.03335,-1.11255 -2.27223,-6.2182 z m 4.41097,1 c -1.44505,-4.50468 -2.36582,-9.32211 -2.38914,-12.5 -0.0285,-3.88302 -0.90883,-4.06579 -3.95671,-0.82148 -2.59639,2.76373 -2.69872,2.23851 1.91648,9.83644 3.54404,5.83448 5.73639,7.55943 4.42937,3.48504 z m 13.30571,-2.66815 c 8.10263,-2.19312 13.90518,-3.05532 23.35458,-3.47025 10.8786,-0.47769 13.55709,-0.95247 19.87235,-3.52248 4.01448,-1.6337 8.2855,-3.89709 9.49116,-5.02975 1.7541,-1.64789 3.50524,-2.05937 8.76411,-2.05937 h 6.572 l 0.63733,-4.25 c 0.63299,-4.22106 0.66611,-4.25026 4.86354,-4.28822 8.11284,-0.0734 9.26541,-0.82479 10.63206,-6.93165 1.96663,-8.78782 -0.38708,-13.18153 -10.7897,-20.14132 -10.94036,-7.31956 -13.33236,-9.20964 -20.11614,-15.89507 -3.84625,-3.79049 -9.34792,-7.88521 -13.4756,-10.02947 -10.3648,-5.38433 -13.08354,-4.72088 -29.05444,7.09016 -5.61077,4.14936 -8.82583,7.47916 -12.08301,12.51425 -2.44093,3.7733 -5.21406,7.33738 -6.16251,7.92018 -1.57542,0.96806 -1.5134,1.20872 0.71757,2.78485 4.10693,2.90144 13.0261,5.16717 24.34757,6.185 10.43498,0.93814 33.48311,6.77782 36.44166,9.2332 2.22121,1.84344 0.24134,2.83623 -2.31537,1.16101 -2.34819,-1.5386 -8.23593,-2.45318 -25.41587,-3.94801 -8.8191,-0.76736 -10.96593,-0.009 -21.5,7.59644 C 176.14637,262.1284 170.89368,265 168.17278,265 c -1.48115,0 -2.03984,0.65119 -2.03984,2.37756 0,4.0271 2.34179,5.11787 8.12277,3.78346 4.94192,-1.14073 13.66302,-1.61348 12.74015,-0.69061 -0.25873,0.25873 -3.37123,1.18364 -6.91667,2.05536 -11.28938,2.77572 -11.94625,3.19337 -11.94625,7.59555 0,2.13327 0.21092,3.87868 0.46871,3.87868 0.2578,0 5.3203,-1.31317 11.25,-2.91815 z m 17.15112,-19.39146 c 1.8546,-2.28007 9.85964,-4.57879 20.13017,-5.78056 11.56431,-1.35317 15.60226,-0.57966 17.65046,3.38113 l 1.60713,3.10784 -2.59361,-1.6994 C 231.74019,259.35178 228.84841,259 219.82705,259 c -10.38069,0 -15.32827,0.79517 -22.19411,3.56703 -1.77852,0.71802 -1.8483,0.62094 -0.63017,-0.87664 z m 32.13017,-21.58281 c -0.825,-0.45739 -5.325,-1.81726 -10,-3.02194 -4.675,-1.20468 -9.68085,-2.6479 -11.1241,-3.20715 -1.44326,-0.55926 -5.04326,-1.40844 -8,-1.88707 -7.58675,-1.22813 -14.83328,-2.84704 -16.01616,-3.57811 -1.36087,-0.84106 1.90502,-2.98645 5.57967,-3.66533 4.60785,-0.85129 27.31144,5.5795 29.56059,8.37304 0.275,0.34156 3.3125,2.03554 6.75,3.7644 3.4375,1.72885 6.25,3.36189 6.25,3.62898 0,0.71473 -1.29337,0.53934 -3,-0.40682 z M 151.31241,275.75 c 16.84235,-14.32824 17.58513,-15.59467 15.68572,-26.74404 -1.71276,-10.05377 -2.9098,-10.57871 -2.21799,-0.97265 0.73492,10.2048 -0.76019,14.05082 -8.08787,20.80523 -4.31495,3.97739 -7.38259,4.74922 -6.15434,1.54846 0.29773,-0.77588 0.0373,-2.51704 -0.57885,-3.86924 -0.83854,-1.8404 -0.82383,-2.81562 0.0585,-3.87878 1.36912,-1.64968 1.6703,-6.16574 0.62428,-9.36065 -0.58094,-1.77439 -0.21913,-2.45325 1.79709,-3.3719 1.38846,-0.63263 2.76077,-2.05382 3.04957,-3.15821 0.34987,-1.33792 1.05525,-1.80454 2.1138,-1.39834 1.17186,0.44969 1.74507,-0.17219 2.18466,-2.37012 0.32777,-1.63887 0.9897,-2.97976 1.47095,-2.97976 1.29392,0 1.06335,-21.40505 -0.2659,-24.6849 l -1.14089,-2.8151 -0.93605,4 c -0.51483,2.2 -0.71502,6.63253 -0.44486,9.85008 0.44397,5.28761 0.3536,5.65363 -0.93988,3.80693 -0.78709,-1.12373 -2.29171,-3.98126 -3.34361,-6.35008 L 152.2742,219.5 l -0.0706,4.28212 c -0.0388,2.35516 0.60436,5.89762 1.42936,7.87212 2.16838,5.18967 1.83975,5.32708 -2.02267,0.84576 l -3.44758,-4 -0.0149,2.88197 c -0.008,1.58508 0.93645,4.42125 2.09919,6.3026 2.65562,4.29688 1.75849,5.33666 -2.12637,2.46446 -3.33424,-2.46511 -3.86408,-1.41618 -1.27817,2.5304 l 1.70952,2.60907 -3.20952,-0.47106 c -3.73372,-0.54799 -4.22648,0.95225 -1.20952,3.68256 2.52514,2.28522 2.54562,3.5 0.059,3.5 -2.70123,0 -3.45507,1.66507 -1.33005,2.9378 1.67295,1.00198 1.66027,1.1502 -0.22897,2.67622 -1.1,0.88851 -1.55,1.79616 -1,2.01699 0.55,0.22083 1.675,0.85242 2.5,1.40354 1.30819,0.87391 1.27622,1.13393 -0.25,2.03344 -2.03214,1.19767 -2.31308,3.56424 -0.5,4.21177 0.6875,0.24554 0.92337,0.79716 0.52417,1.22584 -0.39921,0.42867 -1.41171,0.21018 -2.25,-0.48554 -1.0423,-0.86505 -1.52415,-0.9101 -1.52415,-0.1425 0,0.61734 0.49814,1.12244 1.10699,1.12244 0.60884,0 0.86226,0.63776 0.56314,1.41724 -0.29911,0.77948 0.0783,1.65597 0.83862,1.94774 0.97958,0.3759 1.21447,1.56573 0.80602,4.08276 -0.79922,4.92498 1.49459,4.72148 7.8647,-0.69774 z m 6.61726,-10.1453 c 5.82397,-6.31826 7.60079,-13.85562 4.73938,-20.1047 l -1.37367,-3 -0.0812,2.86663 c -0.066,2.3303 -0.44505,2.77149 -2.02584,2.3581 -1.42756,-0.37331 -2.02581,0.061 -2.25,1.63337 -0.22556,1.58203 -0.89351,2.06012 -2.55538,1.82904 -2.70659,-0.37635 -2.92137,1.39776 -0.5,4.13022 1.28271,1.44751 1.41622,2.09159 0.5,2.41207 -0.6875,0.24048 -1.25,1.43474 -1.25,2.6539 0,1.21917 -0.41538,2.64417 -0.92307,3.16667 -1.03142,1.0615 -0.26927,6.45 0.91229,6.45 0.41583,0 2.57921,-1.97789 4.80751,-4.3953 z m 26.1361,-11.21142 12.92012,-8.60672 6.32353,0.57125 c 4.13604,0.37365 5.4587,0.27208 3.82352,-0.29359 -1.375,-0.47568 -4.975,-0.91323 -8,-0.97234 -3.025,-0.0591 -9.0911,-0.96677 -13.48023,-2.01701 l -7.98023,-1.90953 -4.17557,3.66733 c -3.57811,3.14259 -4.18906,4.25756 -4.26978,7.79233 -0.0518,2.26875 -0.37544,5.53125 -0.71919,7.25 -0.49567,2.47835 -0.28743,3.125 1.00635,3.125 0.89724,0 7.44541,-3.87302 14.55148,-8.60672 z m -70.69629,-7.91595 c 2.04521,-2.20766 8.02303,-5.87263 16.01346,-9.81777 7.0125,-3.46231 12.75,-6.21582 12.75,-6.11891 0,0.55409 -11.40313,7.45254 -16.5,9.98186 l -6,2.97749 5.5,0.32743 c 8.6256,0.51351 20.42951,-0.79792 19.10485,-2.12258 -1.46743,-1.46743 -1.4181,-5.70485 0.0664,-5.70485 0.64419,0 2.05575,0.7875 3.1368,1.75 1.94027,1.7275 1.9445,1.70885 0.32874,-1.45034 -1.83233,-3.58265 -2.04599,-6.1046 -0.6977,-8.23536 0.7529,-1.18984 1.17839,-1.21168 2.48468,-0.12755 1.82374,1.51357 1.93985,0.81795 0.62734,-3.7585 -0.64072,-2.23407 -0.58859,-4.09928 0.16052,-5.7434 1.52072,-3.33762 2.43273,-3.06103 3.97363,1.20507 l 1.31473,3.63993 0.70672,-4.88993 c 0.89306,-6.17919 -0.29264,-7.49528 -7.38205,-8.19379 -4.74729,-0.46774 -5.01314,-0.60944 -2.45173,-1.30678 1.86133,-0.50674 4.44756,-0.24754 7.34482,0.7361 2.45953,0.83503 4.73019,1.25993 5.04591,0.94422 0.73857,-0.73858 4.23633,2.40414 4.23633,3.80632 0,0.58631 2.57341,3.66656 5.7187,6.84501 5.51556,5.57372 6.40947,8.13515 1.23158,3.529 -7.09062,-6.30767 -6.48808,-6.53563 -6.12413,2.31686 0.17938,4.36323 0.74819,7.93314 1.26402,7.93314 2.44104,0 8.00625,-4.94241 10.7721,-9.56661 4.81565,-8.05123 23.01234,-22.24545 31.42081,-24.50962 3.87796,-1.04422 5.68695,-0.94497 12.35026,0.67763 2.85755,0.69586 2.86068,0.69132 0.98451,-1.42643 -2.79602,-3.15604 -9.71635,-6.17365 -14.18357,-6.18474 -2.16386,-0.005 -6.36218,-1.13997 -9.32962,-2.52133 -5.79668,-2.69839 -6.35646,-4.31299 -0.92166,-2.65838 1.82435,0.55542 4.57287,1.28846 6.10783,1.62897 l 2.79083,0.61911 -1.56164,-3.01988 c -2.06617,-3.99555 -5.82677,-6.33976 -11.43359,-7.12729 l -4.58643,-0.6442 4.91245,-0.13362 c 3.93583,-0.10705 5.88076,0.48775 9.78308,2.99186 4.86873,3.12425 7.06932,3.35973 13.30447,1.42367 2.29063,-0.71127 -2.74388,1.76723 -6.49364,3.19682 l -2.49365,0.95069 3.35135,1.73305 c 2.01785,1.04347 4.32657,1.48829 5.80228,1.11791 1.34801,-0.33833 6.13704,-4.10026 10.64229,-8.35985 4.50525,-4.25959 10.32683,-9.44785 12.93684,-11.52947 4.96315,-3.95837 11.12727,-11.95222 10.04839,-13.0311 -0.34496,-0.34495 -3.13969,-0.68557 -6.21053,-0.75693 l -5.58333,-0.12973 7.31614,-0.84989 c 6.77992,-0.7876 7.92613,-1.29025 15.63901,-6.85826 6.7819,-4.89592 9.1766,-7.37812 12.93386,-13.4064 4.2933,-6.88832 4.61099,-7.86232 4.61099,-14.137 V 115.75 l 2.75,0.51432 c 1.5125,0.28287 3.58069,0.20558 4.59597,-0.17175 1.39827,-0.51968 -0.66321,-1.93224 -8.5,-5.82435 -13.98769,-6.94692 -13.85578,-6.92496 -19.15451,-3.19007 -3.39789,2.39506 -6.01654,3.3231 -10.83608,3.84029 -6.84696,0.73476 -9.3312,1.73988 -12.23749,4.95129 -5.03842,5.5674 -14.82387,4.73906 -25.11789,-2.12621 -9.37384,-6.25159 -15.49999,-13.978803 -15.49999,-19.550883 0,-2.03569 -3.7651,-4.192642 -7.31852,-4.192642 -4.49064,0 -19.926,11.853815 -20.99823,16.125895 -0.72322,2.88155 1.21248,10.8258 3.92415,16.10494 l 1.91637,3.73084 2.38668,-4.49894 c 2.97308,-5.60431 3.6503,-5.23408 1.42224,0.77751 -1.35362,3.65224 -1.50404,5.67183 -0.76013,10.20546 1.00075,6.09893 3.01142,7.25385 2.79578,1.6059 -0.11369,-2.97787 0.0378,-3.21665 1.11025,-1.75 1.78596,2.44245 3.9948,2.09802 6.74402,-1.0516 1.32022,-1.5125 3.70001,-3.875 5.28842,-5.25 1.58842,-1.375 -1.00917,1.91938 -5.7724,7.32085 -8.11233,9.19933 -12.59464,16.4756 -14.12473,22.92915 -0.90875,3.8329 1.41569,3.63151 8.68618,-0.75257 3.19004,-1.92359 6.21003,-3.49743 6.71109,-3.49743 0.50105,0 3.51601,-2.10058 6.69992,-4.66797 3.1839,-2.56738 4.94683,-3.70914 3.91763,-2.53724 -2.53434,2.88571 -1.4574,5.63001 1.8806,4.79223 1.46351,-0.36732 2.49068,-0.19437 2.49068,0.41936 0,0.61753 -2.18546,0.97308 -5.34634,0.86979 -4.87263,-0.15923 -6.17268,0.32585 -14.67233,5.47456 -5.12929,3.1071 -9.86275,5.64927 -10.5188,5.64927 -1.78677,0 -6.46253,3.9533 -6.46253,5.464 0,1.50474 6.89913,4.536 10.32389,4.536 1.25588,0 4.68015,1.19434 7.60948,2.65409 l 5.32607,2.65409 -2.6325,1.3793 c -1.44787,0.75862 -5.53723,2.27649 -9.08747,3.37304 -3.55023,1.09656 -6.7749,2.5114 -7.16592,3.14409 -1.01538,1.64291 5.33351,6.63393 10.12157,7.95681 2.20268,0.60857 8.64834,1.22718 14.32369,1.37468 14.76606,0.38377 13.89225,1.4639 -1.18426,1.4639 -14.38948,0 -17.97677,-0.99526 -23.70541,-6.57685 l -3.57086,-3.4792 -6.42914,2.01512 c -3.53603,1.10832 -7.16555,2.02093 -8.0656,2.02803 -1.16239,0.009 -1.82623,1.27842 -2.29156,4.38146 -0.43956,2.93122 -1.82601,5.7365 -4.21391,8.52622 C 139.19936,207.9086 135.42925,210 130.6826,210 c -3.39009,0 -3.54966,0.15734 -3.54966,3.5 0,1.93815 0.505,3.5 1.13167,3.5 0.74303,0 0.94742,1.37367 0.59516,4 -0.49208,3.66869 0.37557,5.26136 1.69938,3.1194 0.45743,-0.74015 5.57379,-2.24665 5.57379,-1.64119 0,0.11047 -2.68623,2.28691 -5.96939,4.83651 -3.28317,2.54961 -7.11607,6.3684 -8.51756,8.48619 -1.40149,2.1178 -4.45276,4.91339 -6.78061,6.21242 -4.816,2.68753 -6.73305,4.82151 -6.01421,6.69478 0.69222,1.80389 0.85498,1.72353 4.51831,-2.23078 z m 61.40045,-36.92734 c 10.77589,-7.64484 12.76006,-8.73887 17.74574,-9.78463 2.94447,-0.6176 6.47419,-0.74505 8.15451,-0.29443 2.59291,0.69537 1.96954,0.96847 -4.99362,2.18773 -5.001,0.87569 -9.58455,2.40504 -12.33971,4.11726 -9.58614,5.95742 -11.73841,7.19184 -12.56692,7.20763 -0.47466,0.009 1.32534,-1.53605 4,-3.43356 z m -7.36842,-8.48992 c -7.16032,-1.16691 -5.75352,-1.79412 3.75572,-1.67443 8.02962,0.10106 8.76009,0.25449 6.28102,1.31926 -3.09687,1.33012 -3.88355,1.35796 -10.03674,0.35517 z m 33.22996,-25.93067 c 1.09919,-1.28487 7.59368,-6.67712 14.43219,-11.98276 6.83852,-5.30565 16.05838,-13.02164 20.48859,-17.14664 7.85665,-7.31539 7.94447,-7.36531 3.5678,-2.02812 -7.5026,9.14917 -13.40303,14.4095 -24.69323,22.01439 -5.93663,3.99883 -11.01888,7.5503 -11.29388,7.89216 -0.275,0.34186 -1.4,1.28882 -2.5,2.10434 -1.9997,1.48254 -1.9997,1.48242 -0.001,-0.85337 z m -28.68603,-8.81251 c 0.72187,-0.28887 1.58437,-0.25335 1.91667,0.0789 0.33229,0.33229 -0.25834,0.56864 -1.3125,0.52522 -1.16495,-0.048 -1.4019,-0.28494 -0.60417,-0.60416 z m 4.1875,-0.24493 c 0,-0.58958 1.31738,-1.07196 2.92752,-1.07196 2.4586,0 13.34348,-3.4647 20.48652,-6.52093 1.22743,-0.52517 1.68916,-0.45506 1.28712,0.19544 -2.34713,3.79774 -24.70116,10.49227 -24.70116,7.39745 z m 5,-6.47318 c 0,-1.61242 16.50226,-8.42986 17.64329,-7.28883 0.79239,0.7924 -7.66122,5.38503 -12.14329,6.59715 -4.32038,1.16839 -5.5,1.31674 -5.5,0.69168 z m -7,-7.04059 c 0,-0.24299 2.28935,-3.05549 5.08745,-6.25 2.7981,-3.1945 5.82012,-7.04569 6.71561,-8.55819 1.61489,-2.72759 3.88099,-3.89977 2.89986,-1.5 -1.92417,4.70637 -1.92302,4.75 0.12499,4.75 1.12304,0 3.2586,-0.46259 4.74568,-1.02798 5.72156,-2.17533 3.32498,0.10292 -3.70283,3.52 -4.05392,1.97111 -9.03187,4.91677 -11.06212,6.54591 -3.5163,2.8216 -4.80864,3.49892 -4.80864,2.52026 z m 51,-6.10985 c 0,-0.34211 2.475,-3.07733 5.5,-6.07826 5.87632,-5.82956 7.61847,-5.2716 2.22417,0.71235 -3.10751,3.44718 -7.72417,6.65434 -7.72417,5.36591 z m -3.914,-5.07622 c -0.0473,-0.62033 0.64441,-2.87033 1.53712,-5 0.89272,-2.12966 1.7526,-5.89712 1.91086,-8.37212 0.33107,-5.17778 3.05535,-6.61695 2.83943,-1.5 -0.12361,2.9292 -6.11707,17.10604 -6.28741,14.87212 z m -18.86453,-2.53654 c 0.21348,-0.64043 1.48848,-1.85738 2.83334,-2.70435 l 2.44519,-1.53993 -2.42431,2.70435 c -2.61706,2.91936 -3.46686,3.37785 -2.85422,1.53993 z M 183.9036,114.45839 c 1.60923,-2.19891 6.8894,-5.21008 7.61556,-4.34299 0.17715,0.21153 -1.85298,1.80692 -4.5114,3.54531 -4.3336,2.83383 -4.65464,2.91633 -3.10416,0.79768 z m -5.76692,1.27646 c -0.005,-0.99244 6.0529,-11.73485 6.6174,-11.73485 0.23662,0 -0.29597,1.4043 -1.18353,3.12066 -2.47098,4.77833 -5.4297,9.46873 -5.43387,8.61419 z m -4.58202,127.35164 c 1.04465,-1.15431 1.71461,-2.21001 1.48882,-2.346 -0.2258,-0.13599 -1.85482,-1.25823 -3.62005,-2.49387 C 169.6582,237.01098 167.9707,236 167.67343,236 c -0.72201,0 -0.66521,5.93286 0.0836,8.72611 0.67398,2.5143 2.50777,1.9957 5.79768,-1.63962 z m -68.61885,-23.46377 c -0.21642,-1.5168 -1.01648,-2.12272 -2.80287,-2.12272 -1.94998,0 -2.423007,0.44001 -2.150047,2 0.694537,3.96935 5.518817,4.08889 4.952917,0.12272 z m -3.93125,-4.96803 c 1.85027,-2.22944 2.50132,-7.5004 1.13044,-9.15221 -3.143887,-3.78816 -11.002057,0.75904 -11.002057,6.36644 0,1.63043 0.5625,3.19139 1.25,3.4688 2.52881,1.02039 7.5372,0.62361 8.621617,-0.68303 z m 38.12838,-9.49423 c 3.33171,-2.45795 7,-7.96274 7,-10.50451 0,-1.85188 -0.31163,-1.75255 -3.25,1.03593 -7.0997,6.73754 -13.386,7.74209 -19.30633,3.08515 l -2.75922,-2.1704 0.70291,2.94669 c 2.12304,8.90017 9.82524,11.35224 17.61264,5.60714 z m -43.533927,-1.84567 c 3.95235,-1.88475 4.22705,-2.49466 1.96799,-4.36951 -0.86126,-0.71479 -2.22282,-2.56989 -3.02567,-4.12245 -1.63244,-3.15679 -2.16412,-3.32467 -4.62009,-1.45878 -1.60482,1.21922 -1.60851,1.62316 -0.0591,6.46819 0.90892,2.84227 1.77642,5.16776 1.92778,5.16776 0.15136,0 1.86546,-0.75835 3.80912,-1.68521 z m 41.333587,-4.72947 c 1.48519,-0.77808 4.23324,-3.00964 6.10679,-4.95903 2.86743,-2.9835 3.20409,-3.78818 2.12756,-5.08531 -1.58866,-1.91421 -4.00419,-1.95329 -8.25008,-0.13346 -1.80616,0.77413 -5.17633,1.91117 -7.48926,2.52676 -2.31293,0.61558 -4.92531,1.83921 -5.80528,2.71919 -1.4666,1.46659 -1.41412,1.79775 0.62965,3.97324 2.60563,2.77356 8.38262,3.21029 12.68062,0.95861 z m -46.722727,-7.5084 C 93.197713,188.08908 93.964903,186 92.074313,186 c -1.68875,0 -8.93662,6.19866 -8.35267,7.14351 1.01966,1.64985 3.5907,0.83094 6.48823,-2.06659 z m -2.80477,-4.14972 c 3.5848,-2.9549 4.90934,-5.9272 2.64132,-5.9272 -1.82993,0 -9.91348,6.2538 -9.91348,7.66952 0,2.27621 3.37918,1.4666 7.27216,-1.74232 z m 71.727837,-2.20313 c 2.475,-1.16484 5.175,-2.05237 6,-1.97229 1.76539,0.17135 14.64283,-3.51436 17.41782,-4.98524 1.83067,-0.97034 1.80795,-1.07742 -0.5,-2.3561 -1.3298,-0.73677 -3.82374,-1.35552 -5.54209,-1.375 -1.71835,-0.0195 -5.03743,-0.71044 -7.37573,-1.53544 -2.3383,-0.825 -5.50447,-1.5 -7.03593,-1.5 -2.98275,0 -11.47905,6.0178 -16.08232,11.39085 l -2.61824,3.05609 2.11824,1.2118 c 2.66898,1.52686 7.81739,0.79545 13.61825,-1.93467 z M 84.287313,182.75 c 5.30298,-3.595 5.72612,-4.33577 2.9754,-5.20881 -2.47891,-0.78678 -10.12977,4.22563 -10.12977,6.63644 0,2.60904 1.7004,2.26973 7.15437,-1.42763 z m -2.40437,-4.73904 c 1.7875,-1.08986 3.25,-2.61503 3.25,-3.38927 0,-2.08419 -2.72598,-2.75285 -4.39963,-1.0792 -0.80163,0.80163 -1.92382,1.45751 -2.49375,1.45751 -0.94602,0 -3.10662,3.08395 -3.10662,4.43426 0,1.22838 3.67021,0.45449 6.75,-1.4233 z M 328.99395,159.70039 c 7.21728,-5.98981 7.96564,-18.67833 1.68812,-28.62256 -2.29462,-3.63492 -2.36603,-4.20846 -1.3643,-10.95767 1.78586,-12.03239 -2.32701,-17.43952 -8.53962,-11.22691 -2.98092,2.98092 -3.01498,3.10675 -0.8408,3.10675 1.24628,0 3.37512,-0.72675 4.73077,-1.61501 1.51376,-0.99185 2.46482,-1.18478 2.46482,-0.5 0,0.61326 -0.44143,1.11501 -0.98095,1.11501 -0.53952,0 -1.2633,1.125 -1.60841,2.5 -0.59048,2.35269 -2.41064,3.55913 -2.41064,1.59783 0,-0.4962 -1.4078,-1.39294 -3.12845,-1.99276 -2.46869,-0.86059 -2.89198,-1.37553 -2.00715,-2.44168 0.89372,-1.07686 0.31087,-1.59391 -2.87155,-2.54738 -4.22702,-1.26645 -5.14462,-2.66837 -2.24285,-3.42668 1.18533,-0.30976 0.94333,-0.49411 -0.75,-0.57132 -2.14167,-0.0977 -2.53355,0.3594 -2.73406,3.18887 -0.20878,2.94623 0.14215,3.43891 3.25,4.56272 1.91623,0.69292 3.48406,1.68073 3.48406,2.19513 0,1.31754 -1.18123,1.11277 -3.44113,-0.59653 -1.06762,-0.80751 -3.6847,-1.4682 -5.81574,-1.4682 -2.13104,0 -4.76408,-0.47603 -5.85121,-1.05784 -1.08712,-0.58181 -3.64504,-0.91298 -5.68426,-0.73594 l -3.70766,0.32191 3.5,1.7038 c 4.59073,2.23476 15.80269,9.27953 18.1511,11.40481 2.60586,2.35827 2.33478,3.84691 -1.6511,9.06705 -4.9994,6.54752 -4.54226,13.9109 1.27558,20.54621 0.9475,1.08064 1.09805,1.75 0.3936,1.75 -1.51947,0 -5.6596,-6.54784 -7.17378,-11.34571 -1.03785,-3.28858 -1.56005,-3.77951 -3.60454,-3.38868 -1.31497,0.25138 -2.39086,0.23156 -2.39086,-0.044 0,-1.06153 3.59414,-3.16051 5.5,-3.212 1.84095,-0.0497 1.80119,-0.21083 -0.5,-2.0257 -1.375,-1.08442 -4.25146,-2.45898 -6.39213,-3.05458 -2.4748,-0.68857 -5.20594,-2.58485 -7.5,-5.20738 -9.14962,-10.45969 -10.71133,-10.99153 -10.25006,-3.49063 0.39636,6.44554 -2.25805,13.3944 -7.13951,18.69015 l -4.17074,4.52472 4.47622,0.88119 c 3.16365,0.6228 5.82297,2.13879 9.06902,5.16995 7.48999,6.99418 9.92387,7.88877 23.4072,8.60349 13.77688,0.73029 21.33998,0.27691 23.36101,-1.40039 z m -96.83352,-43.40947 c 1.35988,-0.93999 3.0701,-2.29293 3.80049,-3.00654 2.39149,-2.33656 4.87476,-3.23239 10.81686,-3.90214 3.22034,-0.36298 7.07932,-1.27713 8.57552,-2.03145 2.98753,-1.50619 5.21661,-4.83474 4.26687,-6.37146 -0.97375,-1.575553 -5.66632,-1.127223 -7.72772,0.73831 -1.20243,1.08818 -4.40396,1.94734 -8.73615,2.34443 -5.37214,0.49242 -7.87473,1.31338 -11.6731,3.82932 -4.15651,2.75316 -5.39727,3.10994 -8.84259,2.54268 -4.72444,-0.77785 -15.13406,-6.34303 -18.43306,-9.85465 -2.5401,-2.703803 -2.35174,-6.159423 0.49065,-9.001825 C 206.71463,89.561165 205.71292,88 202.40266,88 c -6.62543,0 -8.41249,7.741917 -3.38808,14.67791 8.23693,11.37075 25.89692,18.62371 33.14585,13.61301 z m -0.34394,-10.27712 c 3.36792,-2.08811 6.47056,-3.11115 10.31645,-3.40165 3.025,-0.2285 6.28098,-0.73036 7.23552,-1.11523 1.61565,-0.65145 1.6023,-0.81365 -0.19337,-2.348353 -3.4779,-2.97247 -3.04166,-7.570132 0.94852,-9.996702 l 2.99067,-1.818731 -4.96616,-2.326023 c -6.30246,-2.951916 -9.16908,-6.007489 -9.49245,-10.118148 -0.17336,-2.203716 -0.90757,-3.487179 -2.28671,-3.997356 -1.11725,-0.413299 -2.35178,-1.269886 -2.74339,-1.903527 -0.87858,-1.421584 -6.49263,3.656959 -6.49263,5.873325 0,1.095212 -0.64494,0.881332 -2.4468,-0.811426 l -2.4468,-2.298648 -4.0437,6.374334 c -2.22403,3.505884 -4.04797,6.936835 -4.0532,7.624335 -0.005,0.6875 -0.347,1.254799 -0.7595,1.260665 -1.22709,0.01745 -10.25,8.681162 -10.25,9.841952 0,3.157273 15.13932,12.012543 20.68355,12.098203 1.86243,0.0288 5.18232,-1.19005 8,-2.93702 z m -7.92376,-3.2072 c 3.77857,-4.762583 12.58489,-13.795255 13.02271,-13.357435 0.25517,0.25517 -1.43672,2.621002 -3.75976,5.257392 -2.32305,2.6364 -4.86505,6.030943 -5.64891,7.543443 -0.82046,1.58314 -2.25876,2.75 -3.38972,2.75 -1.88453,0 -1.89367,-0.0893 -0.22432,-2.1934 z m -4.15453,-7.684843 c -1.53978,-1.70586 -2.61697,-1.98361 -5.75,-1.48262 -5.0579,0.80879 -4.88375,-0.0906 0.4767,-2.461782 2.38257,-1.05392 5.75757,-3.309814 7.5,-5.013087 2.86832,-2.803873 3.16804,-2.901479 3.16804,-1.031694 0,1.135842 -0.64443,3.483176 -1.43206,5.216301 -0.78764,1.733122 -1.57514,3.988322 -1.75,5.011552 -0.29998,1.75536 -0.42495,1.74188 -2.21268,-0.23867 z M 228.03967,85.75 c -0.57289,-1.535639 -0.40736,-7.932038 0.23134,-8.939163 0.50347,-0.793893 0.83734,0.759563 0.84662,3.939163 0.008,2.8875 -0.20969,5.25 -0.48469,5.25 -0.275,0 -0.54197,-0.1125 -0.59327,-0.25 z m 90.99511,19.93332 c 1.72231,-0.72418 2.82397,-1.62418 2.44815,-2 -1.2177,-1.2177 -3.79251,-0.68381 -6.34999,1.31668 -3.02232,2.36409 -0.95612,2.72594 3.90184,0.68332 z m -3.90184,-3.64814 c 0,-1.56041 -3.49875,-2.979023 -5.83833,-2.367203 C 305.45196,100.67285 306.73588,103 311.13294,103 c 2.2,0 4,-0.43417 4,-0.96482 z m -6,-4.035183 c 1.06793,-0.69015 -0.0842,-0.96937 -4,-0.96937 -3.025,0 -6.175,0.43622 -7,0.96937 -1.06793,0.69016 0.0842,0.96938 4,0.96938 3.025,0 6.175,-0.43622 7,-0.96938 z M 266.29162,86.74325 c 0.41696,-0.674649 0.50158,-2.248717 0.18804,-3.497928 -0.31353,-1.249212 -0.038,-2.912427 0.61238,-3.696035 0.95959,-1.156235 0.5862,-1.733062 -1.98127,-3.06075 -1.74003,-0.899805 -2.93541,-1.864287 -2.65641,-2.143294 0.27901,-0.279006 1.41624,-0.02082 2.52719,0.573737 3.31217,1.77262 4.14808,1.314489 3.50139,-1.91898 -0.51178,-2.558884 -0.29622,-3 1.46598,-3 3.19832,0 3.38727,-1.488649 0.5742,-4.523992 -2.22892,-2.405051 -2.48619,-3.350128 -1.927,-7.079012 0.62964,-4.198793 0.54607,-4.366066 -3.43781,-6.880977 -2.24572,-1.417664 -5.33445,-2.827835 -6.86384,-3.133714 -2.4088,-0.48176 -3.14245,-0.0095 -5.48531,3.530776 C 251.32163,54.160887 249.6513,56 249.09731,56 c -0.55398,0 -1.519,1.123172 -2.14447,2.495938 -0.91188,2.001345 -0.83245,2.84352 0.40085,4.25 1.60675,1.832381 4.77925,7.679192 4.77925,8.807994 0,0.359289 -1.54157,-0.700268 -3.42572,-2.35457 -3.73974,-3.283535 -9.73947,-5.203787 -10.36796,-3.31833 -0.64109,1.923267 -2.20632,0.140202 -2.20632,-2.513373 0,-1.849973 -0.45935,-2.425844 -1.73852,-2.1795 -0.95618,0.184145 -1.89691,1.157285 -2.0905,2.162536 C 231.86879,65.610114 235.83221,70 238.30725,70 c 1.39623,0 1.82569,0.770977 1.82569,3.277494 0,4.940683 2.3331,7.365013 11.31966,11.762287 8.29926,4.060964 13.04529,4.605794 14.83902,1.703469 z M 257.13294,60 c -2.08416,-0.667465 -2.16733,-0.819767 -0.5,-0.915633 1.5438,-0.08876 1.68473,-0.314665 0.61787,-0.990356 -1.0846,-0.686929 -0.92003,-1.022028 0.76452,-1.556684 1.18066,-0.374726 1.88781,-1.100138 1.57144,-1.612028 -0.34519,-0.558531 -1.39698,-0.49091 -2.63022,0.169102 -1.6234,0.868817 -1.96175,0.816877 -1.61098,-0.247295 0.74538,-2.261356 4.12439,-1.954591 7.28737,0.661586 l 3,2.481374 -3.5,0.03677 c -3.29452,0.03461 -3.38604,0.122965 -1.55887,1.504967 2.1609,1.634422 0.78497,1.82163 -3.44113,0.468197 z m -38.80825,15 c 1.94337,-2.475 3.84161,-5.85 4.21831,-7.5 0.3767,-1.65 0.95346,-3.896471 1.28167,-4.992158 0.51061,-1.70457 0.37356,-1.806919 -0.94937,-0.708982 -0.85037,0.705747 -1.83847,2.502218 -2.19576,3.992158 -0.3573,1.48994 -2.20145,5.251809 -4.09811,8.359709 -1.89667,3.1079 -3.44849,6.0104 -3.44849,6.45 0,0.927033 0.4325,0.460463 5.19175,-5.600727 z m -4.19175,-8.576789 c 8.14914,-6.956962 20.11441,-13.789322 30.5,-17.415985 10.58928,-3.697794 26.27896,-6.996516 29.89862,-6.286127 1.82507,0.358184 2.66743,0.194788 2.27438,-0.441171 -0.34333,-0.555527 -2.40365,-1.248719 -4.57849,-1.540425 -2.17483,-0.291707 -6.5733,-2.134419 -9.77438,-4.094916 -6.6669,-4.083143 -12.27113,-5.591815 -20.82013,-5.604828 -10.24725,-0.0156 -10.09641,0.536503 2.75,10.065543 1.5125,1.121922 2.75,2.363454 2.75,2.75896 0,0.977533 -11.10405,6.36502 -11.76224,5.70683 -0.28821,-0.288208 0.21539,-0.807752 1.11911,-1.154542 0.90372,-0.34679 1.64313,-1.088633 1.64313,-1.648539 0,-1.433338 -5.0255,-0.274705 -11.26573,2.597321 -9.95678,4.582546 -15.02158,4.142718 -6.74197,-0.585472 2.21122,-1.262752 3.99573,-3.046207 4,-3.997636 0.009,-1.904691 -0.7714,-1.709737 -7.4923,1.872788 -5.17473,2.758349 -7.10119,4.963178 -8.97367,10.270361 -1.56785,4.443762 -2.1164,15.085526 -0.77633,15.060774 0.4125,-0.0076 3.675,-2.51094 7.25,-5.562936 z m 2.98469,1.267772 c 0.008,-0.994959 -0.43469,-1.530902 -0.98469,-1.190983 -0.55,0.339919 -0.99311,1.828976 -0.98469,3.309017 0.012,2.104766 0.22649,2.364216 0.98469,1.190983 0.53316,-0.825 0.97627,-2.314058 0.98469,-3.309017 z m 13.98204,-1.595971 c -0.0253,-1.212063 -0.50546,-1.028208 -2,0.765772 -1.0817,1.298431 -1.96673,1.928448 -1.96673,1.400038 0,-1.458159 5.87666,-9.260822 6.97489,-9.260822 0.52929,0 0.69395,-0.699411 0.36592,-1.554247 -0.50412,-1.313723 -0.97823,-1.197658 -3.06363,0.75 -3.59231,3.355035 -5.5409,7.617347 -4.81133,10.524201 0.60641,2.416123 0.69754,2.442153 2.58137,0.737308 1.07403,-0.97198 1.93781,-2.484993 1.91951,-3.36225 z M 241.86584,61.25 c -0.86739,-0.9625 -1.88592,-2.9875 -2.2634,-4.5 -0.68866,-2.759377 -2.79079,-3.657198 -3.99621,-1.706784 C 234.72677,56.466215 239.84472,63 241.83882,63 c 1.46183,0 1.46423,-0.155201 0.027,-1.75 z m 3.28294,-7.759787 C 246.3503,52.747629 246.45184,51 245.29346,51 c -1.2007,0 -3.1768,4.696474 -3.07033,7.297053 0.0682,1.666839 0.31545,1.42401 1.01583,-0.997823 0.50911,-1.760423 1.36852,-3.474481 1.90982,-3.809017 z m 7.79093,-5.016778 c -0.93987,-0.939873 -7.51116,5.288165 -8.14764,7.722046 -0.43243,1.653628 0.57156,1.047511 4.08553,-2.466455 2.56237,-2.562368 4.39032,-4.927384 4.06211,-5.255591 z m 16.75451,-0.918629 c -0.67785,-1.069857 -1.86893,-2.144086 -2.64686,-2.387177 -0.77793,-0.243091 -0.32348,0.744747 1.00989,2.195194 2.91384,3.169679 2.05546,3.421429 -1.84169,0.540143 -1.56001,-1.153369 -3.64438,-1.940869 -4.63192,-1.75 -1.30869,0.252938 -0.46085,1.178126 3.12688,3.412162 4.16839,2.5956 5.02151,2.825376 5.56928,1.5 0.35577,-0.86082 0.0923,-2.440465 -0.58558,-3.510322 z M 211.13294,44.5 c 5.6915,-2.8841 6.73724,-3.093249 5,-1 -1.63043,1.964544 0.23925,2.023804 3.28518,0.104125 1.21815,-0.767731 3.22732,-1.698055 4.46482,-2.067387 1.84937,-0.551944 2.25,-0.284346 2.25,1.502863 0,1.571904 0.43828,2.006193 1.58179,1.567388 0.86998,-0.333844 3.45748,-0.627942 5.75,-0.65355 l 4.16821,-0.04656 -4.71576,-2.455205 c -6.65277,-3.463682 -7.25464,-5.02058 -5.68275,-14.699875 1.28316,-7.901422 1.26971,-8.032795 -1.0113,-9.879851 -2.32136,-1.879724 -6.49907,-2.256946 -11.01605,-0.994683 -3.25618,0.909935 -3.89485,3.118445 -0.90747,3.13805 4.27063,0.02803 5.09357,1.397739 2.29944,3.827204 C 213.68999,25.371916 214.12543,27 217.71101,27 c 2.14038,0 2.37651,0.332805 1.8172,2.56125 -0.5172,2.060684 -0.22776,2.669793 1.48095,3.116632 1.17278,0.306688 2.12378,1.361414 2.12378,2.355416 0,0.990019 0.5625,2.027009 1.25,2.304421 0.71312,0.287752 0.45817,0.538294 -0.59362,0.583334 -1.01399,0.04342 -2.05419,-0.726271 -2.31155,-1.710427 -0.25736,-0.984156 -1.45273,-2.227886 -2.65638,-2.763844 -1.449,-0.645207 -2.10796,-1.730041 -1.95024,-3.210626 C 217.05934,28.469597 216.59923,28 214.68017,28 c -3.78518,0 -4.20882,-2.059787 -0.95854,-4.660544 2.58683,-2.069883 2.68283,-2.330075 0.86131,-2.334489 -2.31313,-0.0056 -4.45,-1.771297 -4.45,-3.677032 0,-1.700721 10.14943,-4.579518 13.33058,-3.7811 5.67681,1.424788 6.49916,4.069867 5.14027,16.533598 -0.69611,6.384673 -0.63457,6.645621 2.06833,8.771728 3.58962,2.823596 7.28164,3.739565 8.78404,2.179269 0.91037,-0.945462 0.61081,-1.596726 -1.32322,-2.876784 -6.93664,-4.591075 -7.29139,-5.440374 -6.52761,-15.627699 1.01873,-13.5879584 1.10781,-13.4953664 -12.73609,-13.2368054 -10.90753,0.203718 -11.40454,0.117578 -16.9863,-2.943959 -3.1625,-1.7346 -5.75,-2.816844 -5.75,-2.404987 0,1.23286 3.3317,3.866043 7.02975,5.555902 3.39419,1.5510074 3.25305,1.5767674 -6.43987,1.1753044 -9.47987,-0.39264 -10.30031,-0.612347 -18.8975,-5.0605994 -4.94306,-2.557577 -9.2585,-4.3715623 -9.58988,-4.0310793 -0.33137,0.3404843 1.14231,2.1338383 3.27485,3.9852323 3.92375,3.406456 10.74847,5.9412894 19.06534,7.0812444 7.36501,1.009486 5.23201,2.354751 -3.69269,2.328943 -7.67932,-0.02221 -11.93094,-0.602647 -17.5,-2.389142 -1.64819,-0.528724 -2.25,-0.324044 -2.25,0.765245 0,3.073293 9.50591,5.078025 24.24974,5.114106 7.56235,0.01851 13.74985,0.323003 13.75,0.676659 9.5e-4,2.34133 -20.30641,3.772607 -27.57143,1.943254 -5.76758,-1.452294 -6.99523,-0.638914 -2.11397,1.400608 2.5226,1.05401 7.12053,1.513127 15.15354,1.513127 6.34267,0 11.53212,0.356668 11.53212,0.792595 0,1.408463 -8.82127,3.202012 -16.76435,3.408542 -6.44046,0.16746 -5.72647,0.293455 4.26435,0.752519 11.03804,0.507182 11.75951,0.657455 9,1.8746 -1.65,0.72777 -5.7,1.918952 -9,2.647071 -4.90428,1.08209 -5.36083,1.335774 -2.5,1.389134 1.925,0.0359 6.425,-0.578103 10,-1.364461 8.47932,-1.865114 8.97122,-1.824123 6,0.5 -2.99855,2.345497 -1.29974,2.569908 3.68566,0.486873 1.99178,-0.832219 3.87115,-1.263397 4.17637,-0.958173 1.05748,1.057477 -6.38992,6.470932 -12.36203,8.985863 -4.48677,1.889435 -5.11728,2.364803 -2.5,1.884844 1.925,-0.353007 5.40678,-1.751693 7.73729,-3.10819 5.71231,-3.324915 6.9422,-2.571239 3.20423,1.963559 -3.61782,4.389048 -2.7008,4.67041 4.05848,1.245224 z m -6.52283,-6.597936 c 0.53745,-0.526026 -0.58755,-0.427378 -2.5,0.219219 -4.47773,1.513919 -5.34694,2.366332 -1.47717,1.448631 1.65,-0.391292 3.43973,-1.141824 3.97717,-1.66785 z m 50.97331,-10.254443 c 0.8067,-1.278885 0.34181,-2.316873 -2.1567,-4.815378 -2.97294,-2.972942 -3.7448,-3.214447 -11.58951,-3.626189 l -8.40444,-0.44112 -0.63891,3.867533 c -1.20112,7.270768 -1.81294,6.878938 10.54991,6.756498 9.19531,-0.09107 11.39619,-0.40419 12.23965,-1.741344 z m -67.18673,-7.351552 c -1.22994,-0.237362 -3.47994,-0.243505 -5,-0.01365 -1.52006,0.229854 -0.51375,0.424059 2.23625,0.431567 2.75,0.0075 3.99369,-0.180555 2.76375,-0.417917 z M 66.889203,158.14145 c -2.86964,-2.41465 -2.97447,-2.77956 -2.39399,-8.33334 0.57685,-5.51897 0.49583,-5.80987 -1.6276,-5.84355 -7.844508,-0.12439 -13.670828,-11.32758 -9.206048,-17.70195 1.47835,-2.11065 1.36309,-2.2536 -3.50593,-4.3482 -8.53106,-3.66996 -13.33536,-12.72462 -10.02925,-18.90214 0.84233,-1.57391 0.54225,-1.95534 -1.97294,-2.50777 -3.80429,-0.835553 -8.70829,-5.412363 -9.59811,-8.957725 -0.79635,-3.172898 1.67509,-9.263214 4.14335,-10.210373 2.78207,-1.067583 3.75826,1.125611 2.29819,5.163353 -1.25816,3.47938 -1.19832,3.81105 1.01013,5.599352 2.63365,2.1326 13.12594,2.77629 13.12594,0.80526 0,-0.60259 0.9312,-2.403372 2.06933,-4.001722 2.68377,-3.76901 2.16902,-7.031111 -1.37683,-8.725407 -4.06551,-1.942599 -3.18188,-4.59439 1.66392,-4.993451 5.68895,-0.468497 7.977948,1.984612 7.406,7.936969 -0.24435,2.543046 -1.42055,5.994769 -2.61377,7.670489 l -2.16949,3.046772 3.4777,1.14774 c 4.151908,1.37026 8.109568,5.784453 9.410508,10.496053 1.00286,3.63206 0.0385,10.01231 -1.78963,11.84045 -1.66848,1.66849 -1.31948,2.33497 1.92687,3.67965 1.65253,0.6845 4.35253,2.77975 6,4.65611 3.44434,3.9229 4.02693,9.42425 1.39581,13.18069 -1.47389,2.10428 -1.46456,2.43293 0.11879,4.18252 1.30575,1.44283 1.55077,2.79225 1.02035,5.61959 -0.50776,2.70662 -0.93766,3.33307 -1.57718,2.2983 -0.48354,-0.78238 -0.61955,-2.45688 -0.30225,-3.72111 0.9323,-3.71456 -2.13721,-6.21801 -7.62398,-6.21801 -6.6915,0 -8.514628,-1.69115 -8.526468,-7.90922 -0.0104,-5.44068 -0.46834,-5.98925 -2.93825,-3.51935 -1.93369,1.93369 -1.94546,2.59761 -0.12339,6.95845 1.6529,3.95594 3.78699,5.15379 12.115818,6.80054 4.61141,0.91176 5.99843,1.61046 6.29201,3.16958 0.36081,1.91626 0.29514,1.92672 -1.56838,0.25 -2.87908,-2.59048 -4.63022,-2.25171 -3.87684,0.75 0.36183,1.44165 0.19605,2.5 -0.39159,2.5 -0.56048,0 -1.01906,1.28026 -1.01906,2.84501 0,2.80312 2.59749,6.15499 4.76973,6.15499 0.61173,0 1.344,0.375 1.62727,0.83333 1.15043,1.86144 -2.84044,0.66442 -5.64074,-1.69188 z M 69.132943,138.7 c 0,-0.715 -0.5625,-1.90602 -1.25,-2.6467 -1.00509,-1.08286 -0.9921,-1.20041 0.0663,-0.59999 1.00969,0.57276 1.24264,-0.14849 1,-3.0962 -0.34041,-4.13552 -2.31712,-5.70727 -8.8112,-7.00609 l -3.206598,-0.64132 1.60074,3.09549 c 1.848168,3.57397 2.009358,4.56539 0.60074,3.69481 -0.55,-0.33992 -1,0.0624 -1,0.89393 0,2.89668 2.288558,6.50574 4.386998,6.91829 4.36605,0.85837 6.61299,0.65035 6.61299,-0.61222 z m 4.81591,-6.56111 c 0.25091,-2.54733 -0.38498,-3.90796 -3.09106,-6.61404 -1.87383,-1.87383 -4.71598,-3.69776 -6.3159,-4.05319 -13.614288,-3.02445 -17.795778,-5.68627 -18.997768,-12.09344 -0.68059,-3.62788 -1.32464,-4.06476 -3.21118,-2.17822 -2.12163,2.12164 -1.28754,5.64579 2.1498,9.08313 3.67372,3.67372 5.64253,4.59981 16.358788,7.6949 8.51019,2.45792 10.29141,3.95968 10.29141,8.67673 0,4.47983 2.36653,4.04628 2.81591,-0.51587 z m -13.81591,-13.70463 c 0,-0.31116 -0.50114,-1.50215 -1.113658,-2.64664 -0.8921,-1.66691 -0.79263,-2.26056 0.499998,-2.98395 0.88752,-0.49668 1.61366,-2.13367 1.61366,-3.63775 0,-3.15254 -3.303398,-5.51297 -9.198008,-6.5724 -3.61406,-0.64955 -3.71315,-0.58399 -4.36442,2.88758 -1.01653,5.4186 1.36214,10.1821 4.81243,9.63732 0.4125,-0.0651 0.75,0.34608 0.75,0.9138 0,0.56773 1.0125,1.4392 2.25,1.93662 2.63547,1.05932 4.749998,1.26651 4.749998,0.46542 z m -9.541108,-6.50079 c -0.36254,-0.58659 -0.44469,-1.281 -0.18256,-1.54313 0.26213,-0.26213 0.74307,0.21781 1.06875,1.06653 0.67619,1.76211 0.0999,2.07206 -0.88619,0.4766 z m 15.518878,-2.53559 c 0.0254,-4.69052 -3.13988,-10.163003 -7.007778,-12.115713 -1.41508,-0.71441 -5.93793,-1.21481 -10.58995,-1.17165 -8.26905,0.0767 -12.5483,-1.19848 -15.34989,-4.574192 -1.1002,-1.32566 -1.0933,-2.05572 0.0408,-4.315939 0.75071,-1.496212 1.52937,-3.057886 1.73035,-3.470386 0.66381,-1.36241 -1.62913,-0.779255 -3.22981,0.821429 -2.0187,2.018694 -2.014,6.823486 0.01,9.912028 1.86877,2.85211 7.78127,5.14802 15.41888,5.987363 6.8991,0.75819 11.95855,2.31011 14.362778,4.40561 1.57482,1.37258 1.7705,2.55111 1.26582,7.62357 l -0.59696,6 1.96194,-2.5 c 1.2108,-1.54285 1.97046,-4.07053 1.98419,-6.60212 z M 57.589575,84.379489 c 0.97466,-5.195361 -2.37616,-9.174579 -6.5975,-7.834776 C 48.506705,77.333538 48.619115,79 51.157705,79 c 2.66228,0 4.3938,4.399001 3.11672,7.918189 -2.3603,6.504188 -2.35288,6.641318 0.19815,3.665936 1.37502,-1.60373 2.77767,-4.395815 3.117,-6.204636 z M 145.00478,154.75 c -1.52266,-2.85851 -3.88281,-4.67751 -6.12184,-4.7182 -2.61551,-0.0475 -2.11485,-2.0318 0.51265,-2.0318 1.24618,0 3.10606,-1.12309 4.14007,-2.5 1.03259,-1.375 2.35439,-2.5 2.93735,-2.5 0.66875,0 0.61706,0.44287 -0.14007,1.2 -1.65819,1.65819 -1.50468,7.01492 0.2682,9.35887 1.72091,2.27526 1.91301,3.44113 0.56698,3.44113 -0.53065,0 -1.50415,-1.0125 -2.16334,-2.25 z M 10.662825,101.8383 C 7.9833552,95.976847 5.7170252,83.688369 6.3366452,78.380885 6.6651852,75.566685 6.4064252,75 4.7928552,75 c -1.72624,0 -1.87583,-0.52009 -1.3662,-4.75 0.7668,-6.364393 5.06135,-15.781311 8.1071298,-17.77698 2.03632,-1.334248 2.86804,-1.40047 4.7821,-0.380749 1.27439,0.678928 2.76706,1.816475 3.31706,2.527883 0.55,0.711408 2.35,1.985131 4,2.830496 1.86953,0.95784 2.35367,1.53935 1.2848,1.543189 C 23.974385,58.997239 21.664975,57.65 19.785725,56 14.146725,51.048886 11.084275,52.265905 7.7891952,60.767439 5.6626152,66.254154 4.1461052,73 5.0392452,73 c 0.38154,0 1.27979,-0.5625 1.99613,-1.25 1.0635,-1.020697 1.23308,-0.471935 0.92439,2.991463 -0.20792,2.332804 0.0835,4.434778 0.64757,4.671052 0.68121,0.285334 0.67238,0.456101 -0.0263,0.508538 -2.45443,0.18421 1.9393998,21.964327 4.7858898,23.723557 0.72712,0.44939 0.84748,-0.11971 0.36761,-1.73824 -1.19706,-4.037543 -1.8393,-15.598308 -0.77254,-13.90637 0.52016,0.824995 1.24828,3.299995 1.61804,5.499997 0.69491,4.13465 3.07608,8.310173 4.13509,7.251153 0.33157,-0.33157 -0.11378,-3.067973 -0.98966,-6.080903 -0.87589,-3.012932 -1.5749,-6.533803 -1.55338,-7.824154 0.0828,-4.964156 3.23941,4.582832 3.65455,11.053084 l 0.41059,6.399163 -2.33216,-1.52808 c -2.23219,-1.46259 -2.33087,-1.4196 -2.30214,1.00321 0.0544,4.58655 -2.39793,3.62591 -4.9401,-1.93517 z m 9.97012,-7.838303 c -0.33992,-0.55 -0.084,-1 0.56879,-1 1.14691,0 0.94926,-3.076472 -0.64247,-9.999997 -0.55526,-2.415196 -0.52123,-2.43398 1.00321,-0.553747 1.71906,2.120281 3.13944,1.379868 3.73362,-1.946253 0.20811,-1.164974 1.29242,-2.133417 2.59707,-2.319551 1.61769,-0.230797 2.23978,-0.994599 2.23978,-2.75 0,-1.739149 0.55208,-2.430449 1.94099,-2.430449 1.06754,0 2.21909,0.45 2.55901,1 0.33992,0.55 -0.075,1 -0.92193,1 -0.84698,0 -1.82232,1.125 -2.16742,2.5 -0.45049,1.794874 -1.30201,2.5 -3.01906,2.5 -1.85585,0 -2.39159,0.536059 -2.39159,2.393011 0,1.316156 -0.72273,2.670349 -1.60607,3.009318 -1.16127,0.445622 -1.42703,1.329649 -0.9596,3.192031 1.08034,4.304417 -1.1152,8.349057 -2.93433,5.405637 z m 25.95889,-6.066528 c -0.36254,-0.586592 -0.44469,-1.281 -0.18256,-1.543128 0.26213,-0.262129 0.74307,0.21781 1.06875,1.066531 0.67619,1.762103 0.0999,2.072053 -0.88619,0.476597 z m -10,-8 c -0.36254,-0.586592 -0.44469,-1.281 -0.18256,-1.543128 0.26213,-0.262129 0.74307,0.21781 1.06875,1.066531 0.67619,1.762107 0.0999,2.072058 -0.88619,0.476597 z m 34.034748,0.301218 c -0.5535,-0.404078 -2.5785,-2.858273 -4.5,-5.453766 -3.40828,-4.603783 -4.99364,-5.804132 -4.99364,-3.780921 0,1.533673 -2.132798,1.189785 -4.194878,-0.676371 -1.42006,-1.285138 -2.12692,-1.401829 -3.02874,-0.5 C 53.262315,70.470633 51.746095,71 50.539935,71 c -1.20615,0 -2.45203,0.675 -2.76861,1.5 -0.66621,1.736113 -3.90862,1.960919 -6.70412,0.464816 -3.10181,-1.660042 -2.22744,-2.901751 1.14655,-1.628214 2.63055,0.992922 3.26779,0.907153 4.36024,-0.586865 C 47.277685,69.787382 49.041325,69 50.493195,69 c 1.45186,0 2.63975,-0.45 2.63975,-1 0,-1.552769 2.13783,-1.181392 4.31736,0.75 1.44751,1.282707 2.091598,1.416219 2.412078,0.5 0.86659,-2.477496 3.15239,-1.154816 6.91261,4 3.43719,4.711965 3.86521,5.009088 4.17656,2.899242 0.27433,-1.858948 0.83419,-2.257607 2.67604,-1.905514 2.14161,0.409395 2.28544,0.175967 1.78641,-2.899243 -0.66183,-4.078341 0.78189,-4.35121 3.66037,-0.691823 3.02091,3.840469 3.44519,2.380556 0.54747,-1.883821 -1.35198,-1.989607 -6.06506,-6.407753 -10.47352,-9.818102 -7.46952,-5.778367 -10.042188,-8.66573 -6.51538,-7.312365 0.825,0.316582 1.48569,0.189959 1.46819,-0.281385 -0.0543,-1.462437 -18.020668,-12.493508 -19.792998,-12.152582 -1.2139,0.233506 -1.85648,1.804046 -2.33356,5.70346 -0.84001,6.865768 -2.40782,9.745256 -5.985,10.992269 -1.57115,0.547704 -2.85663,0.82092 -2.85663,0.607148 0,-0.213773 -1.18891,0.228135 -2.64202,0.982018 -2.27662,1.181127 -2.96813,1.157019 -5,-0.174313 -2.44143,-1.599689 -2.84778,-2.491857 -1.67094,-3.668693 1.26958,-1.269579 1.03465,-5.127118 -0.45075,-7.401302 C 21.568405,43.487874 23.116495,41 26.632945,41 c 2.90445,0 4.56558,2.033236 3.86133,4.726287 -0.43124,1.64907 0.15353,2.488596 2.6229,3.765557 2.02202,1.045625 2.97795,2.164339 2.62821,3.075749 -0.72998,1.902282 0.85298,1.824138 2.81614,-0.139022 1.04096,-1.04096 1.57142,-3.396172 1.57142,-6.976947 0,-4.591027 0.35893,-5.640693 2.38206,-6.966298 2.25078,-1.47477 2.71297,-1.366833 8.38708,1.958671 8.844318,5.183513 16.713028,11.639973 15.271688,12.530771 -0.78611,0.485845 0.53707,2.013178 3.8526,4.447001 6.25371,4.590641 13.10657,12.255732 13.10657,14.660004 0,2.962229 -2.13803,3.374021 -4.21617,0.812047 L 76.975033,70.5 l 0.61889,2.833178 c 0.49476,2.264968 0.2283,2.935316 -1.32859,3.342454 -1.07111,0.280102 -2.17195,1.367672 -2.44631,2.416822 -0.52505,2.007772 -1.51947,2.36357 -3.19244,1.142233 z M 29.198685,54.964816 c 3.06487,-1.640264 2.27786,-2.980554 -1.06574,-1.814971 -1.65,0.575193 -3,1.451784 -3,1.94798 0,1.197156 1.6832,1.142091 4.06574,-0.133009 z m 0.82415,-4.332137 c 0.85648,-1.032002 0.80711,-1.639263 -0.20135,-2.476207 -1.50383,-1.248071 -3.68854,0.258448 -3.68854,2.543528 0,1.70943 2.45051,1.66702 3.88989,-0.06732 z m -2.88989,-7.323001 c 0,-1.968387 -2.41213,-1.097005 -2.82265,1.019681 -0.22499,1.160126 0.15332,1.480982 1.25,1.060145 0.86496,-0.331915 1.57265,-1.267837 1.57265,-2.079826 z M 9.7399352,76.418213 c -1.16896,-3.046264 -0.59225,-11.64702 1.0069498,-15.017084 2.31987,-4.888752 6.00462,-4.646536 12.70666,0.835266 2.84867,2.330017 5.36868,4.356792 5.60001,4.503943 0.23134,0.147151 -0.62134,1.376658 -1.89484,2.732236 -1.64907,1.755355 -2.76456,2.213358 -3.87593,1.591402 -1.13187,-0.633424 -1.86348,-0.281474 -2.66365,1.281369 -0.61577,1.202684 -1.94296,2.077883 -3.00393,1.980892 -1.04541,-0.09557 -2.50711,0.69193 -3.24821,1.75 -1.63396,2.332808 -3.80163,2.493015 -4.6270598,0.341976 z M 14.174275,73.39131 c 0.81402,-2.14105 1.25327,-2.391703 2.45032,-1.398242 1.1944,0.991261 1.67316,0.739322 2.64394,-1.39131 1.3276,-2.913759 1.92536,-3.140814 3.67156,-1.394615 0.94285,0.942857 1.57568,0.838602 2.89047,-0.476191 0.92583,-0.925833 1.48512,-1.822228 1.24286,-1.99199 -0.24226,-0.169761 -2.54121,-1.980475 -5.10877,-4.023809 -5.42561,-4.31784 -7.2143,-4.587072 -9.30242,-1.400192 -1.72456,2.632002 -3.0852998,10.793718 -2.18898,13.12948 0.9017,2.349794 2.58986,1.869423 3.70102,-1.053131 z m 15.52297,-9.098182 c -0.54269,-1.425198 -0.42783,-1.540062 0.55979,-0.559795 0.68342,0.678334 0.99067,1.485241 0.68278,1.793128 -0.30788,0.307888 -0.86704,-0.247112 -1.24257,-1.233333 z m 9.10237,-0.959795 c -1.18974,-1.18974 -0.70585,-4.055924 0.91134,-5.398074 0.86791,-0.720297 2.6862,-3.496541 4.04066,-6.169431 2.83933,-5.603149 4.50888,-6.570713 8.05923,-4.67062 3.84634,2.058497 10.322098,8.90651 10.322098,10.91545 0,2.46743 -2.36289,3.123887 -4.885188,1.357199 -1.88176,-1.318032 -2.11481,-1.309718 -2.11481,0.07544 0,1.845014 -3.08856,2.068139 -4.80927,0.347433 -0.94569,-0.945694 -1.55272,-0.718923 -2.785,1.040408 -1.04199,1.48765 -2.19589,2.052849 -3.40658,1.668593 -1.00696,-0.319596 -2.12026,-0.11278 -2.47401,0.459593 -0.73658,1.191825 -1.88977,1.342711 -2.85847,0.374009 z m 2.33333,-2.352385 c 0,-0.594143 1.06796,-0.751014 2.56125,-0.376219 2.06069,0.517198 2.6698,0.227764 3.11664,-1.480948 0.6659,-2.546413 1.18172,-2.610848 4.1662,-0.520433 2.15762,1.511256 2.32069,1.482538 2.83914,-0.5 0.64976,-2.484681 1.61038,-2.659426 3.31677,-0.603348 1.34062,1.61534 3.999998,2.044846 3.999998,0.646023 0,-1.209838 -3.847638,-5.18671 -8.271758,-8.549594 -3.64736,-2.772448 -3.83701,-2.807961 -5.75,-1.076732 -1.08803,0.984653 -1.97824,2.315371 -1.97824,2.957151 0,0.64178 -1.33748,2.934536 -2.97218,5.095013 C 38.993235,60.758191 38.529325,62 40.132945,62 c 0.55,0 1,-0.458573 1,-1.019052 z m -6.37646,-0.519607 c -0.96498,-2.514694 -0.68031,-3.163555 0.49854,-1.136338 0.58369,1.003751 0.8506,2.035659 0.59313,2.293128 -0.25747,0.257469 -0.74872,-0.263087 -1.09167,-1.15679 z"
       id="path1" />
  </g>
</svg>
